<svg width="74" height="72" viewBox="0 0 74 72" fill="none" xmlns="http://www.w3.org/2000/svg">
<g clip-path="url(#clip0_0_6)">
<path d="M73.4035 43.8472C73.3778 43.9491 73.3469 44.046 73.3057 44.1428C73.3572 44.046 73.3006 43.6178 73.3881 43.5362C73.244 43.6789 73.1616 44.2244 73.1101 44.3774C72.8682 45.0605 72.6006 45.7385 72.3278 46.4063C72.4153 46.0648 72.5079 45.7334 72.6057 45.3969C72.3123 45.7487 72.2712 46.4318 72.1116 46.86C71.9984 47.171 71.8491 47.4718 71.7153 47.7726C71.7359 47.6604 71.7462 47.3393 71.8182 47.2526C71.6278 47.4769 71.566 47.9153 71.4579 48.1855C71.4579 48.1651 71.4631 48.1498 71.4682 48.1294C71.3189 48.3792 71.1439 48.5882 70.9895 48.8227C70.8711 49.0114 70.7373 49.511 70.5366 49.5823C71.1079 48.1192 71.6844 46.6663 72.1785 45.1726C72.5542 44.0409 72.7859 42.8276 73.4499 41.8131C73.316 42.0221 73.3418 42.6899 73.2954 42.9295C73.2079 43.4087 73.0793 43.8727 72.9506 44.3417C73.0587 44.1225 73.1462 43.9032 73.2079 43.6687C73.28 43.4036 73.2646 42.9958 73.4138 42.7562C73.3572 42.848 73.4653 43.2303 73.3932 43.2966C73.5168 43.1844 73.5116 42.695 73.5374 42.5523C73.6609 41.8029 73.7638 41.0484 73.8359 40.2939C73.9903 38.6677 74.0366 37.0261 73.9697 35.3897C73.9028 33.7634 73.7278 32.1423 73.4396 30.5365C73.3006 29.7514 73.1359 28.9663 72.9454 28.1914C72.9248 28.0996 72.7344 27.0291 72.6006 27.0189C72.7859 27.0342 72.9197 30.72 72.9403 31.1125C73.002 32.2188 73.3315 33.5442 73.0793 34.625C73.1153 34.4721 73.0381 34.1458 73.0329 33.9776C73.0278 33.8756 72.9918 33.1568 72.9403 33.2027C72.7807 33.3607 72.9815 34.3803 72.9918 34.5128C73.0226 34.9309 73.0381 35.354 73.0175 35.772C73.0072 35.9658 73.0432 36.5571 72.8991 36.6948C72.8837 36.7101 72.8682 36.501 72.8476 36.4705C72.93 36.5775 72.7962 37.3014 72.791 37.4595C72.7807 37.7194 72.7344 37.9896 72.6778 38.1477C72.544 38.5045 72.5337 39.1163 72.4153 39.57C72.3947 39.6465 72.2094 40.2837 72.1734 40.2888C72.1734 40.2888 72.2145 39.4833 72.2145 39.4782C72.2094 39.4935 72.2094 39.5088 72.2042 39.5292C72.23 39.259 72.266 38.9939 72.2917 38.7237C72.302 38.6524 72.2917 38.0814 72.3226 38.0406C72.1785 38.2038 72.2197 38.7798 72.1837 38.999C72.1373 39.2743 72.1065 39.5496 72.0756 39.83C71.9623 40.8853 71.7564 41.8794 71.5042 42.9091C71.2572 43.9083 71.041 44.9636 70.6498 45.9169C70.4027 46.5083 70.1711 47.1098 69.9189 47.7012C69.7748 48.0377 69.6307 48.3741 69.4763 48.7106C69.3733 48.94 69.1057 49.3071 69.0645 49.562C69.0645 49.5518 69.0902 49.4498 69.0696 49.4447C68.9255 49.4192 68.7402 50.2757 68.6218 50.3215C68.6373 50.3164 68.7248 49.9239 68.7145 49.8882C68.7299 49.9443 68.4983 50.2451 68.4571 50.3215C68.2615 50.6835 68.0814 51.0607 67.8806 51.4227C67.4843 52.1364 67.0262 52.8144 66.5424 53.4721C65.9814 54.2266 65.3894 54.9607 64.7718 55.6744C64.6534 55.812 63.7115 57.0814 63.5004 57.0559C63.5107 57.0559 63.624 56.7602 63.6188 56.7602C63.4541 56.7755 63.171 57.2191 63.0732 57.321C62.7798 57.632 62.471 57.9277 62.1725 58.2335C62.5637 57.8512 62.9651 57.3159 63.2997 56.8775C62.8519 57.1375 62.4762 57.7135 62.1056 58.0806C61.5908 58.5904 61.0504 59.0747 60.4945 59.5437C59.5011 60.3849 58.4768 61.1088 57.3651 61.7817C57.4526 61.7613 57.4937 61.7205 57.4783 61.6644C57.2878 61.797 57.118 61.9295 56.9172 62.0519C56.9893 61.9907 57.257 61.6645 57.3445 61.6441C57.0923 61.7103 56.8143 62.0213 56.6084 62.1691C56.14 62.5107 55.6202 62.7758 55.1003 63.0307C56.3202 62.1488 57.4783 61.1801 58.5592 60.1402C59.0688 59.6508 59.532 59.1155 60.0364 58.621C60.2526 58.4069 60.51 58.2386 60.7364 58.0347C60.793 57.9837 61.1688 57.5249 61.1945 57.53C61.0607 57.5198 60.7776 57.8257 60.685 57.8971C61.0967 57.4179 61.5806 57.0763 62.0644 56.6838C62.3835 56.4238 62.6409 56.0873 62.9394 55.8018C63.0372 55.7101 63.6034 55.292 63.5931 55.185C63.6188 55.4144 62.8519 56.021 62.6923 56.1842C62.3938 56.49 62.121 56.7857 61.8997 57.1528C63.0166 56.2708 63.799 55.0167 64.6894 53.9156C65.6468 52.7278 66.5733 51.5043 67.2064 50.1125C66.949 50.347 66.9387 50.8466 66.6659 51.0454C66.8049 50.9435 66.7689 50.5662 66.8975 50.4694C66.8306 50.5204 66.6865 50.8007 66.6608 50.8415C66.3674 51.2901 66.0483 51.7235 65.724 52.1517C65.0755 53.0082 64.3754 53.8085 63.6548 54.6038C64.5247 53.3905 65.338 52.1517 66.1872 50.9231C66.0071 51.1882 65.8578 51.4992 65.6725 51.7745C65.4769 52.065 65.2762 52.3964 65.1527 52.7278C65.2968 52.3352 65.7343 51.9274 65.9608 51.545C66.0586 51.3819 66.388 50.9537 66.3931 50.7753C66.388 50.8823 66.2696 51.1627 66.213 51.2341C66.4189 50.9588 66.6145 50.5764 66.7946 50.2706C66.9696 49.9749 67.1137 49.6741 67.2527 49.358C67.3659 49.098 67.4689 48.5933 67.6851 48.3894C67.5821 48.4863 67.4483 49.0267 67.4277 49.1643C67.4637 48.8839 67.7211 48.471 67.8292 48.1855C67.9373 47.8847 68.0042 47.5075 68.138 47.222C64.9674 53.8748 59.0585 59.0543 52.362 62.0876C50.576 62.8982 48.7487 63.4589 46.8649 63.9738C47.5237 63.6985 48.1723 63.4028 48.8105 63.0817C49.3664 62.8013 49.9635 62.628 50.5451 62.3986C51.2142 62.1335 51.8782 61.8327 52.5267 61.5064C52.8304 61.3535 53.129 61.1954 53.4275 61.0374C53.4893 61.0017 53.8959 60.8335 53.9062 60.8182C53.8701 60.91 53.7209 60.9456 53.69 61.0374C53.7312 60.9151 54.8224 60.4053 54.8121 60.3543C54.8224 60.39 54.74 60.4715 54.7194 60.4919C54.843 60.3441 56.418 59.3602 56.4231 59.3653C56.4437 59.3857 56.315 59.508 56.3099 59.5131C56.5364 59.2735 56.8761 59.0849 57.1386 58.8759C57.3136 58.7382 57.7356 58.5343 57.8334 58.3457C57.8231 58.3661 57.4834 58.728 57.4937 58.7331C57.6687 58.8606 58.5026 57.6983 58.7033 57.7747C58.7085 57.8002 58.7136 57.8308 58.7187 57.8563C58.8732 57.9277 62.3526 54.8128 62.2342 54.6701C62.2548 54.6956 62.157 54.8434 62.1519 54.8536C62.5431 54.1756 63.2843 53.6658 63.7424 53.0235C64.0821 52.5595 64.571 51.9886 64.6894 51.4278C64.6071 51.805 63.9946 52.2588 63.7475 52.534C63.2894 53.0489 62.8262 53.5587 62.3835 54.0889C61.807 54.7822 61.0916 55.3889 60.4019 55.9955C61.246 54.9199 62.2342 53.987 63.1041 52.9419C63.4284 52.5544 63.6651 52.1466 63.8968 51.698C64.2159 51.0862 64.6843 50.5764 65.0652 50.0055C64.674 50.5662 64.463 51.3309 64.046 51.8764C64.7615 50.969 65.1836 49.8831 65.7703 48.9298C66.2233 48.2008 66.563 47.4157 67.0262 46.6969C67.2681 46.3248 67.3917 45.8863 67.5873 45.4938C67.6439 45.3765 68.0608 44.7291 67.999 44.6373C68.1174 44.8209 67.6079 45.6671 67.5204 45.8558C67.3505 46.2279 67.2167 46.5899 67.1395 46.9875C67.8909 45.8812 68.1329 44.4232 68.5549 43.1691C69.0285 41.7417 69.5123 40.2837 69.5946 38.7747C69.4454 39.0755 69.6049 39.5343 69.4196 39.8096C69.466 39.7433 69.4866 39.31 69.4454 39.2131C69.4351 39.2182 69.4351 39.2284 69.4351 39.2437C69.4557 39.1061 69.4969 37.49 69.7542 37.4034C69.7851 37.3932 69.8108 37.5767 69.8417 37.5869C69.8417 37.5869 69.9858 36.1085 69.9652 36.1136C69.9807 36.1085 70.0322 36.3736 70.0888 36.2767C70.1814 36.1136 70.166 35.8383 70.1763 35.6599C70.2226 34.936 70.3307 34.2325 70.341 33.5136C70.3461 33.0956 70.3873 32.698 70.4182 32.3003C70.4388 32.0658 70.377 31.8058 70.3461 31.5764C70.305 31.2706 70.0888 30.7149 70.1969 30.4192C70.1814 30.4549 70.341 31.0106 70.413 31.0157C70.3307 31.0106 70.2586 28.742 70.1145 28.6706C70.3719 28.8032 70.4542 29.8941 70.5005 30.1541C70.5675 30.5263 70.5726 30.8882 70.5623 31.2655C70.552 32.0913 70.588 32.8662 70.516 33.6921C70.3976 35.0583 70.2947 36.4246 70.063 37.7806C69.9395 38.4892 69.7902 39.1927 69.6152 39.8912C69.5174 40.2837 69.5174 40.8139 69.3836 41.1809C70.2895 38.6524 70.7219 35.7669 70.763 33.0905C70.7785 32.02 70.7733 30.9443 70.6344 29.8839C70.5726 29.4353 70.5726 29.0173 70.5366 28.5636C70.5108 28.2679 70.3358 27.8396 70.3925 27.5491C70.3925 27.5593 70.4748 27.7326 70.4954 27.753C70.3667 27.6459 70.2586 26.8252 70.238 26.6263C70.1969 26.2389 70.2277 25.7699 70.1557 25.3519C70.0682 24.8574 69.8726 24.3883 69.7027 23.9142C69.502 23.3637 69.3321 22.8131 69.188 22.2472C68.9152 21.1868 68.5086 20.1673 68.102 19.1477C67.2424 16.9963 66.352 14.9164 65.1063 12.9486C63.8556 10.9757 62.4144 9.13532 60.8085 7.43771C60.2938 6.89223 59.8048 6.29577 59.1768 5.87264C58.6776 5.55657 58.1629 5.2354 57.643 4.93972C57.4371 4.82247 56.6547 4.54718 56.5569 4.38405C56.7062 4.63384 57.1334 4.86325 57.3599 5.04678C57.6533 5.28638 57.9467 5.52598 58.2246 5.78088C58.7239 6.2244 59.2129 6.67812 59.707 7.12673C60.335 7.6977 60.8033 8.31965 61.3798 8.92121C61.5445 9.08944 61.7504 9.24748 61.8791 9.4412C61.9512 9.54825 61.982 9.73178 62.085 9.86433C62.5585 10.4761 63.0475 11.0725 63.5004 11.6996C64.4784 13.0556 65.3534 14.4831 66.11 15.9717C65.9505 15.6607 65.6211 15.3446 65.4306 15.0285C65.1372 14.5442 64.8438 14.0497 64.5144 13.5858C64.149 13.0709 63.7424 12.5102 63.3923 12.0258C63.2019 11.7659 62.9445 11.4906 62.7798 11.2714C62.5894 11.0216 60.7364 9.52276 60.8342 9.30865C60.8548 9.26277 61.2203 9.54825 61.246 9.49727C61.2975 9.39532 60.2423 8.55925 60.3195 8.50318C60.3967 8.4471 60.7416 8.78866 60.7776 8.72239C60.9423 8.41651 58.4614 7.07576 58.5643 6.84125C58.5695 6.82596 59.5217 7.4479 59.568 7.453C59.3518 7.43261 58.8577 6.89733 58.6724 6.73929C58.5489 6.63223 58.4357 6.52518 58.3224 6.41302C57.9827 6.09185 57.5915 5.64324 57.1695 5.43422C57.2003 5.44442 57.7048 5.76049 57.7305 5.735C57.7665 5.69421 54.4312 3.90484 54.1121 3.73661C54.6062 4.11385 55.1827 4.38405 55.7231 4.68992C55.8312 4.7511 56.9378 5.51069 56.9172 5.53108C56.84 5.58206 56.6496 5.37814 56.5672 5.42402C56.6084 5.39853 57.4783 6.07146 57.5709 6.13773C57.5606 6.13773 57.5555 6.13773 57.5452 6.13264C57.9209 6.4691 58.2607 6.83615 58.6261 7.17771C58.9555 7.48869 59.357 7.78947 59.6143 8.16162C56.7165 5.91343 53.6488 3.90484 50.473 2.06448C50.7304 2.21742 51.24 2.2837 51.5488 2.41114C51.9914 2.59467 52.4187 2.80878 52.8459 3.0178C52.64 2.89035 50.8282 1.96253 50.8179 2.00331C50.8127 1.98802 51.0238 2.03899 51.0186 1.99821C50.9826 1.72802 49.0782 1.34058 48.8929 1.2896C47.462 0.891959 46.0053 0.591181 44.5332 0.382166C43.1229 0.183346 41.6972 0.0558976 40.2714 0.0151141C39.5302 -0.00527761 38.789 -0.0052776 38.0478 0.0202121C37.9912 0.02531 37.0184 0.137465 36.9978 0.111975C37.0699 0.219032 37.7853 0.183346 37.8831 0.193542C38.3979 0.244521 38.9177 0.305696 39.4376 0.382166C40.3744 0.514712 41.306 0.698238 42.2325 0.876665C43.3751 1.09588 44.5847 1.18254 45.6605 1.64136C45.3208 1.49861 44.6877 1.41705 44.2862 1.33038C44.4818 1.64136 45.4803 1.70253 45.7788 1.75861C46.2575 1.85037 46.7156 1.97782 47.1737 2.14605C47.3127 2.19703 47.8995 2.53349 47.987 2.5131C47.987 2.5131 47.8428 2.50291 47.8428 2.5131C47.8943 2.73231 49.2892 3.0025 49.5208 3.15544C49.9069 3.41034 50.3032 3.58877 50.7458 3.79778C51.0289 3.93033 51.7598 4.2566 51.9039 4.51659C51.8628 4.44522 51.2348 4.29228 51.1679 4.26679C51.1833 4.27699 51.1988 4.28718 51.2142 4.29228C50.9208 4.16993 50.6377 4.02719 50.3444 3.89974C50.2363 3.85386 49.8296 3.7621 49.7833 3.71112C50.0201 3.95072 50.5863 4.08327 50.89 4.2413C51.1473 4.37385 51.4098 4.486 51.6775 4.60326C52.7841 5.07736 53.7878 5.69421 54.8018 6.33655C55.7489 6.93811 56.7011 7.53967 57.5452 8.27887C58.0959 8.76317 58.6621 9.23218 59.1974 9.73178C59.4651 9.98158 59.7327 10.2365 59.9952 10.4914C60.1342 10.629 60.3813 10.9961 60.5614 11.0776C60.5563 11.0776 60.4688 11.0318 60.4688 11.0623C60.4739 11.2102 61.1328 11.8423 61.21 11.8678C60.8188 11.5263 60.4327 11.1847 60.0313 10.8533C59.9232 10.7667 59.254 10.1549 59.1511 10.2059C59.2232 10.1702 60.896 12.347 61.0967 12.5866C61.246 12.7701 61.3335 12.9231 61.4261 13.1219C61.5239 13.3258 61.9203 13.6674 61.9409 13.8509C61.9409 13.8458 61.7967 13.8203 61.7864 13.8254C61.9203 13.7591 63.8916 17.7049 64.0666 18.0669C63.9688 17.8579 63.7166 17.654 63.5879 17.445C63.3512 17.0575 63.1607 16.6446 62.9137 16.2622C62.7541 16.0175 62.574 15.7779 62.4041 15.5383C62.3887 15.5128 62.1364 15.1203 62.2188 15.1764C62.121 15.1203 61.7659 14.5289 61.7092 14.5493C61.7195 14.5442 61.7607 14.5748 61.7659 14.5646C61.7916 14.5289 60.2938 12.8517 60.2629 12.8619C60.407 12.8109 60.618 13.2494 60.7725 13.2137C60.7467 13.2188 60.232 12.5 60.2166 12.5102C60.2783 12.4745 60.793 12.918 60.7982 12.9027C60.8497 12.7651 60.0467 12.1125 59.9489 12.0157C59.7791 11.8474 59.2643 11.5161 59.1923 11.2866C59.2438 11.46 60.0107 11.9494 60.1599 12.0309C59.5217 11.6792 59.2643 10.8431 58.6879 10.4353C58.7393 10.471 59.1717 10.8533 59.218 10.8176C59.2129 10.8227 56.4386 8.79886 56.1761 8.62043C56.6856 9.27297 57.643 9.53296 58.1423 10.2161C58.0754 10.1243 57.7614 10.0937 57.6996 9.99687C57.8386 10.2314 58.2143 10.42 58.4099 10.6086C58.3945 10.6035 58.3842 10.5984 58.3687 10.5882C58.5643 10.8176 58.7136 11.0623 58.8938 11.2968C59.0224 11.4651 59.3982 11.7251 59.3982 11.9392C57.4937 10.0988 55.1981 8.71219 53.3297 6.85145C53.515 7.03497 54.0091 7.16242 54.2459 7.29497C54.6113 7.49888 54.9613 7.73849 55.3113 7.96789C55.0952 7.77417 54.879 7.58555 54.6319 7.42751C54.565 7.38673 53.9679 6.99419 53.9319 7.01458C53.9474 7.00438 54.2665 7.13183 54.2665 7.11144C54.2716 6.89223 52.5834 6.26518 52.4289 6.19381C51.2914 5.68912 50.123 5.25069 48.9289 4.88364C47.8686 4.56757 46.8495 4.32797 45.8561 3.80798C45.6759 3.71112 43.7921 3.09937 43.7921 3.07388C43.7921 3.05348 44.3119 3.14525 44.3428 3.13505C44.281 3.16054 43.4009 2.93113 43.37 2.84957C43.3597 2.82408 43.5398 2.81898 43.5347 2.81388C43.5141 2.74761 41.9648 2.36526 41.8928 2.42644C42.006 2.33467 42.8553 2.45703 42.9582 2.49781C42.5928 2.33977 42.0781 2.33467 41.6766 2.25821C41.5942 2.24291 41.0589 2.07978 41.0126 2.12056C41.1258 2.0288 41.5788 2.14095 41.7023 2.13076C41.4655 2.15625 41.0075 1.94213 40.7552 1.88606C40.4155 1.80449 40.0707 1.75351 39.7258 1.68724C39.0927 1.56489 38.5111 1.37626 37.8471 1.2947C37.0956 1.20293 36.3236 1.10097 35.5669 1.10607C35.3147 1.10607 34.3779 1.07039 34.2287 1.24881C34.2904 1.17235 34.9853 1.33548 35.1088 1.34058C35.4177 1.35077 35.7574 1.26411 36.0662 1.32528C36.2 1.35077 36.1691 1.48842 36.4162 1.44254C36.1897 1.48842 35.9941 1.45273 35.778 1.44254C35.3199 1.41705 34.836 1.5343 34.3934 1.47822C34.3985 1.47822 34.6301 1.42214 34.625 1.41195C34.5529 1.26411 32.7463 1.45783 32.6382 1.46293C31.5161 1.5241 30.3941 1.63626 29.2771 1.7892C28.2323 1.93704 27.1874 2.12056 26.158 2.33977C25.6638 2.44173 25.1697 2.55389 24.6807 2.69153C24.2587 2.81388 23.7285 3.08917 23.2859 3.06878C23.5226 3.09937 24.1712 2.65584 24.4234 2.53859C24.4903 2.508 24.691 2.37036 24.7631 2.37546C24.6962 2.37036 24.4028 2.46722 24.3565 2.5131C24.5263 2.34997 25.005 2.17664 25.2418 2.11546C23.7748 2.47742 22.4366 3.38995 20.9954 3.86406C21.2579 3.76719 21.8498 3.14015 22.1278 3.19623C21.8704 3.14525 21.1652 3.67543 20.9594 3.78759C20.7895 3.87425 20.3777 4.0017 20.2542 4.13934C20.3674 4.0119 21.4689 3.49191 21.438 3.41034C21.4432 3.42563 19.7035 4.38404 19.5182 4.44522C19.7601 4.36875 20.3057 3.73151 20.563 3.77739C20.388 3.7468 20.0843 3.89974 19.9196 3.98131C19.5387 4.16993 19.1887 4.43502 18.8284 4.65424C18.6534 4.76129 17.835 5.09776 17.7887 5.2303C17.8299 5.10285 18.2005 4.91933 18.2931 4.85815C18.5248 4.68992 18.9623 4.51149 19.1321 4.28209C18.9983 4.46561 18.3961 4.67463 18.185 4.81737C17.7733 5.09776 17.3872 5.42912 16.924 5.63304C17.2071 5.50559 17.5314 5.18952 17.799 5.01109C17.2689 5.16913 16.9188 5.77578 16.4041 5.9644C16.3578 5.9848 16.6049 5.78598 16.3475 5.9644C16.6821 5.7248 17.0372 5.46991 17.3512 5.19971C16.5688 5.87264 15.6218 6.40283 14.7725 6.98909C14.2629 7.34085 13.7585 7.7028 13.2438 8.04946C13.007 8.21259 12.3636 8.54906 12.2864 8.84984C12.3225 8.71729 13.0225 8.42161 13.1872 8.32475C13.6247 8.06985 14.0519 7.79456 14.4791 7.52437C15.349 6.9738 16.224 6.45381 17.1453 5.9848C16.5843 6.24989 15.9203 6.88713 15.4468 7.26948C15.0298 7.60594 14.3607 7.96789 14.057 8.42161C14.2887 8.08515 14.7262 7.80986 15.0299 7.53967C15.2049 7.38673 15.4159 7.12164 15.6166 7.00948C15.4107 7.12673 15.2151 7.32555 15.0299 7.47849C14.8857 7.59065 14.5872 7.9628 14.3916 7.98319C14.4945 7.97299 14.6335 7.64163 14.7365 7.65692C14.649 7.64672 14.9166 7.52947 14.896 7.453C14.8806 7.37144 13.1563 8.79376 13.2232 8.73768C12.8886 9.03336 12.5129 9.26277 12.1732 9.55845C11.8077 9.87452 11.5092 10.2569 11.1592 10.5729C11.3908 10.369 11.607 10.1447 11.8489 9.95099C11.6636 10.1039 11.5041 10.3486 11.3239 10.522C10.9791 10.8533 10.5827 11.1388 10.2276 11.4651C10.0474 11.6333 9.24447 12.1737 9.21873 12.3929C9.25476 12.1176 9.7283 11.7659 9.9033 11.5568C10.104 11.3121 10.593 10.9196 10.6908 10.629C10.6548 10.7259 10.0217 11.3019 10.0474 11.3223C10.032 11.3121 10.2636 11.0521 10.2893 10.9961C10.0577 11.4702 9.47094 11.9494 9.13123 12.3725C8.95108 12.6019 8.68343 13.0862 8.40549 13.2137C8.62166 13.1117 8.91505 12.5102 9.05917 12.3215C9.36285 11.9239 9.67168 11.5314 9.98051 11.1337C8.91505 12.3776 7.94739 13.6827 6.85105 14.9011C7.07238 14.6615 7.27826 14.325 7.48929 14.065C7.71062 13.7897 7.87018 13.3513 8.13269 13.1168C7.79812 13.4125 7.51503 13.8203 7.25253 14.1874C7.13414 14.3505 6.79958 14.6768 6.76355 14.8654C6.78928 14.7227 6.99517 14.4219 7.07752 14.325C6.85105 14.5799 6.63487 14.8807 6.43928 15.1509C6.21795 15.4568 6.02236 15.7779 5.82677 16.0991C5.6878 16.3285 5.37382 16.6905 5.32235 16.9505C5.36867 16.721 5.61574 16.1909 5.7753 16.0379C5.24514 16.5426 5.08044 17.4959 4.68925 18.1026C5.09073 17.4195 5.60544 16.823 6.05324 16.1705C6.51649 15.4975 7.06723 14.8705 7.64886 14.2995C8.59593 13.3615 9.47609 12.3878 10.4952 11.5263C11.6688 10.5271 12.8732 9.57374 14.1497 8.71729C18.0615 6.09695 22.5086 4.11385 27.1411 3.14525C29.5499 2.64055 32.0257 2.41114 34.4706 2.17664C34.3934 2.16644 33.5441 2.30409 33.539 2.36016C33.539 2.36526 34.2904 2.29899 34.3728 2.32958C34.3213 2.36016 34.2698 2.37546 34.2081 2.37036C34.5581 2.30409 34.939 2.29389 35.2993 2.2735C35.3919 2.2684 36.1743 2.2735 35.9787 2.33467C36.1486 2.2786 36.5809 2.38565 36.7662 2.40095C37.0544 2.42644 37.3375 2.46212 37.6258 2.5131C37.8162 2.54879 38.8765 2.59977 38.9074 2.66604C38.892 2.63036 38.6089 2.74761 38.5986 2.73741C38.7221 2.84957 39.1854 2.78839 39.3346 2.79859C39.8236 2.82408 40.2869 2.86486 40.7655 2.96682C41.1258 3.03819 41.4707 3.07897 41.8258 3.08917C42.0781 3.09937 42.4641 3.07897 42.6906 3.22681C42.5259 3.11976 41.5582 3.0178 41.3626 3.11466C41.4553 3.06368 41.9082 3.23191 41.9957 3.2523C42.495 3.36446 42.9737 3.54798 43.4729 3.67543C42.9582 3.60406 42.4486 3.53779 41.9339 3.497C41.8722 3.5021 41.3008 3.5123 41.2803 3.48681C41.3523 3.58877 41.8258 3.61935 41.9236 3.63975C42.3097 3.72641 42.6906 3.82837 43.0715 3.93543C43.7972 4.14444 44.5229 4.36365 45.2435 4.58286C46.0002 4.80717 46.8906 4.88364 47.5495 5.32716C47.4414 5.25579 46.3193 5.00599 46.3244 5.02129C46.3347 5.12834 47.148 5.29148 47.1892 5.30167C47.8737 5.49539 48.4605 5.68912 49.0627 6.07146C49.037 6.06636 48.9083 6.05617 48.9083 6.05617C49.5517 6.4793 50.3135 6.74949 50.9775 7.14203C50.7201 7.02987 50.4524 6.93811 50.1899 6.83615C50.648 7.04007 51.065 7.32555 51.4973 7.58045C51.101 7.42241 50.962 7.36124 50.5966 7.18791C50.4679 7.12164 49.8348 6.93811 49.7576 6.83615C49.8811 7.00948 50.3804 7.16242 50.576 7.26438C50.823 7.39183 51.0753 7.50398 51.3275 7.62123C51.8885 7.88123 52.3054 8.15142 52.7944 8.50828C52.9128 8.59494 53.6951 8.88042 53.7054 9.05375C53.7054 9.07415 53.5304 9.00787 53.5304 9.01297C53.551 8.98238 54.3746 9.65531 54.4312 9.62472C54.39 9.64511 54.179 9.51767 54.1532 9.50747C54.601 9.77256 54.9819 10.109 55.3783 10.4455C54.9768 10.1039 54.39 9.87962 53.9474 9.56865C53.412 9.1965 52.8562 8.86513 52.2951 8.53376C51.8061 8.24318 51.3429 7.92201 50.8642 7.62123C50.5811 7.43771 50.2826 7.27967 49.9841 7.12164C49.8451 7.04517 49.1657 6.80047 49.1245 6.64753C49.1193 6.61694 49.7988 6.83105 49.8142 6.82086C49.7885 6.84125 49.1296 6.55067 49.0936 6.54047C48.7333 6.41812 48.373 6.30087 48.0076 6.19891C47.4774 6.04597 46.9421 5.90833 46.4119 5.74519C46.0053 5.62284 43.6891 4.77659 43.6788 4.81227C43.7097 4.71031 44.4818 4.97031 44.6362 4.91933C44.3582 5.00599 43.5965 4.51659 43.2876 4.41973C42.7163 4.2413 42.0986 4.28718 41.5222 4.13934C41.6817 4.18013 42.0369 4.19542 42.2222 4.17503C41.6251 4.2362 40.8324 4.05268 40.2354 3.95582C39.6795 3.86406 39.0515 3.79778 38.5162 3.63975C38.7684 3.71112 39.206 3.62445 39.4788 3.64484C39.8905 3.67033 40.2714 3.73661 40.6626 3.85386C40.9972 3.95582 41.2905 4.0068 41.6405 4.02719C41.8053 4.04248 42.4538 3.9915 42.5567 4.07817C42.3303 3.89464 41.62 3.92013 41.306 3.83857C40.9457 3.7468 40.4258 3.61426 40.1788 3.52759C39.767 3.38995 39.2574 3.24721 38.8199 3.17583C38.2383 3.07897 37.6515 3.29309 37.0699 3.14525C37.1471 3.18603 37.4353 3.11976 37.528 3.11466C36.9515 3.12485 36.375 3.18603 35.7985 3.23701C36.0868 3.24721 36.375 3.24721 36.6633 3.2676C36.1743 3.31348 35.6853 3.35426 35.1963 3.37975C35.0934 3.38485 33.9662 3.49191 33.8581 3.36446C33.8684 3.37465 34.6096 3.21662 34.6404 3.20132C34.4037 3.31858 33.7397 3.22681 33.4463 3.24211C32.9419 3.2676 32.4375 3.2676 31.9433 3.32367C32.5661 3.17074 33.2147 3.08407 33.8529 2.98721C34.0073 2.96682 34.6662 2.97192 34.7691 2.84447C34.6765 2.93113 34.0743 2.89545 33.9559 2.91074C33.7088 2.94133 33.4617 2.98721 33.2147 3.03309C32.9676 3.07388 32.7206 3.11976 32.4735 3.17074C32.3551 3.19113 31.6963 3.2676 31.6551 3.31348C31.6963 3.27269 32.036 3.16564 32.036 3.16054C31.9588 3.04839 30.8573 3.23191 30.7338 3.24211C30.2654 3.27779 29.8021 3.33897 29.3337 3.39505C29.694 3.31858 30.0543 3.23191 30.4198 3.16054C30.5485 3.13505 30.8521 3.0178 30.986 3.06878C30.8161 3.0025 30.4867 3.29309 30.2963 3.2727C30.8161 3.32877 31.4235 2.95662 31.9382 2.91074C31.5316 2.94643 30.8779 2.75271 30.5279 2.99231C30.5794 2.95662 30.8264 2.94133 30.8521 2.87506C30.8419 2.90564 29.8433 3.0127 29.8433 3.0076C29.8382 2.98211 29.9205 2.97192 29.9205 2.94133C29.9205 2.90564 27.9749 3.41034 27.8359 3.43583C27.5683 3.48171 27.3006 3.46642 27.0381 3.52759C26.7293 3.59896 26.0447 3.73151 25.8234 3.92013C25.844 3.90994 25.8646 3.89464 25.88 3.87425C25.8337 3.89464 25.7874 3.90994 25.741 3.93033C25.9984 3.82327 26.5491 3.46132 26.8271 3.46642C26.719 3.46642 25.3807 4.02719 25.3396 3.95582C25.355 3.98131 26.3021 3.48171 26.3484 3.52249C26.2043 3.39505 24.8609 4.06288 24.6344 4.15464C24.269 4.30248 23.9344 4.41463 23.569 4.5064C22.6013 4.75619 21.7314 5.2456 20.8152 5.62794C20.0792 5.93382 19.3637 6.27538 18.6483 6.61694C17.9277 6.9636 17.2431 7.40712 16.5637 7.83535C16.4762 7.89142 15.3026 8.58474 15.3129 8.66121C15.2975 8.57455 15.6527 8.31965 15.7041 8.26357C15.5034 8.49808 15.0299 8.86513 14.7262 9.01807C14.7159 9.02317 14.999 8.67651 14.9475 8.72749C14.7725 8.92121 14.4894 9.07415 14.2887 9.24238C14.1651 9.34434 13.5217 9.74198 13.4909 9.88472C13.5063 9.81844 13.6916 9.65021 13.7122 9.62982C13.3261 10.0275 12.8217 10.5271 12.3585 10.8329C12.4254 10.7871 12.7703 10.2467 12.8475 10.2569C12.7136 10.2365 11.8386 11.098 11.8335 11.1592C11.8386 11.0878 11.9313 11.0012 11.957 10.94C11.8644 11.1541 11.3651 11.4498 11.1695 11.6078C10.8761 11.8474 10.6085 12.1329 10.3254 12.398C10.1967 12.5203 9.16211 13.4329 9.21873 13.4737C9.193 13.4584 9.42462 13.1321 9.39374 13.1627C8.85329 13.7693 8.31284 14.2842 7.82901 14.9368C7.72092 15.0795 7.62312 15.2223 7.52532 15.3752C7.35032 15.6505 7.18047 16.1399 6.9437 16.3591C7.26797 16.0583 7.57165 15.6913 7.89077 15.3752C8.00401 15.263 9.06947 14.218 9.02829 14.0905C9.01799 14.1109 9.01799 14.1313 9.01799 14.1517C9.31138 14.0344 9.63565 13.5093 9.86727 13.3003C10.207 12.9894 10.5364 12.6682 10.9121 12.398C11.7305 11.8066 12.4357 11.0776 13.2592 10.4914C12.9247 10.7259 12.6416 11.1235 12.3327 11.3937C11.8489 11.827 11.3496 12.2451 10.8658 12.6784C10.3511 13.1372 9.83124 13.6215 9.37315 14.1262C8.79667 14.7532 8.14813 15.3599 7.64371 16.0277C7.04149 16.8179 6.55766 17.7202 5.99148 18.5359C6.15104 18.1994 6.33634 17.914 6.54222 17.6081C6.76355 17.2818 6.88708 16.8638 7.129 16.5579C6.79443 16.9861 6.50619 17.4195 6.24883 17.8987C6.10986 18.1485 5.98118 18.4034 5.85251 18.6634C5.81648 18.7398 5.49221 19.1986 5.49735 19.2139C5.46647 19.061 5.89368 18.1485 6.02236 18.0108C5.87824 18.1638 5.82677 18.4289 5.66721 18.5665C5.74956 18.5002 5.9503 18.021 5.9606 17.8834C5.9503 18.0006 5.75471 18.2402 5.70324 18.3371C5.52824 18.6583 5.36867 18.9896 5.20911 19.3159C4.97749 19.7849 4.82823 20.2998 4.57602 20.7586C4.44734 20.9982 4.28263 21.197 4.15395 21.4519C4.01498 21.7119 3.57747 22.2574 3.54659 22.548C3.59806 22.1096 3.95836 21.6559 4.15395 21.2684C4.31351 20.9472 4.4319 20.6159 4.54513 20.2743C4.03042 20.9116 3.7113 21.8853 3.41791 22.6805C3.4385 22.6143 3.45394 22.3951 3.48997 22.3543C3.29953 22.5327 3.22747 23.017 3.15026 23.2464C3.01129 23.6542 2.86202 24.0417 2.69216 24.4393C2.71275 24.3323 2.76422 23.7256 2.84658 23.6746C2.71275 23.7562 2.64069 24.2864 2.59952 24.4189C2.42966 24.9695 2.28039 25.515 2.0848 26.0554C2.11568 25.7954 2.30613 25.4283 2.24436 25.1683C2.2701 25.2652 2.01274 25.6985 1.97156 25.7903C1.86862 26.0197 1.75538 26.244 1.68332 26.4836C1.62156 26.713 0.998756 29.5984 0.998756 29.5984C0.926696 29.5577 1.07082 28.3698 1.06567 28.3749C0.79287 28.6451 0.803164 29.5577 0.772282 29.9145C0.75684 30.0929 0.710516 31.5306 0.535513 31.5509C0.535513 31.5509 0.602426 30.5772 0.602426 30.5517C0.381099 31.1533 0.411982 32.0352 0.355363 32.6827C0.386246 32.3411 0.283304 31.9588 0.345069 31.6274C0.231832 32.2494 0.293598 32.9223 0.252421 33.5493C0.190655 34.4058 0.0980066 35.252 0.0619767 36.1085C0.0310939 36.9446 0.0207996 37.7806 0.0105053 38.6167C0.000211042 38.9837 -0.0100832 39.3508 0.0156525 39.7178C0.0310939 39.9472 0.185508 40.3449 0.144331 40.559C0.221538 40.1512 0.139184 39.6771 0.144331 39.259C0.149478 38.7798 0.175214 38.3006 0.195802 37.8214C0.236979 36.8426 0.314186 35.8689 0.411982 34.9003C0.520072 33.8705 0.653897 32.8458 0.844341 31.8262C0.942137 31.296 1.06567 30.7659 1.1892 30.2408C1.24067 30.0369 1.63185 28.9867 1.55979 28.9C1.67818 29.0428 1.44141 29.6851 1.40538 29.9043C1.34361 30.2765 1.30758 30.6537 1.27155 31.0259C1.24582 31.3521 1.20464 31.6733 1.17376 31.9996C1.14288 32.2799 1.28185 32.8917 1.11714 33.1109C1.19435 33.0141 1.10685 32.3819 1.10685 32.2494C1.10685 32.127 1.03479 31.4388 1.1017 31.3929C0.978167 31.5051 1.02449 32.0352 1.0142 32.178C0.993608 32.4788 1.06052 32.9682 0.931843 33.2486C0.957578 33.1925 0.875224 33.0242 0.895813 32.9529C0.895813 32.9886 0.885519 33.0191 0.870077 33.0497C0.870077 33.0191 0.859783 32.9937 0.834047 32.9835C0.679633 33.0191 0.617867 34.1152 0.597279 34.2885C0.499483 35.0685 0.633309 35.8383 0.597279 36.6183C0.571543 37.2046 0.520072 37.7857 0.535513 38.3771C0.550955 38.9735 0.68478 39.5598 0.715663 40.141C0.710516 39.9574 0.746546 38.6932 0.643603 38.6269C0.787723 38.7186 0.751693 39.468 0.75684 39.6414C0.782576 40.2837 0.818606 40.926 0.875224 41.5684C0.931843 42.2056 1.0039 42.8429 1.0914 43.4801C1.15317 43.9338 1.29214 44.4283 1.25611 44.882C1.06052 44.1632 0.741399 43.317 0.664192 42.5778C0.695074 42.8837 0.993608 43.4036 0.906107 43.6891C0.906107 43.684 0.823753 43.4393 0.803164 43.4393C0.767134 43.4444 1.3642 45.4785 1.41567 45.6518C1.51347 45.9883 1.54435 46.7377 1.72965 46.962C1.52891 46.7173 1.4517 46.2075 1.34361 45.9118C1.19949 45.4989 1.03993 45.086 0.885519 44.673C1.19949 45.7742 1.462 46.8855 1.9098 47.9408C2.06936 48.3181 2.19804 48.6902 2.31642 49.0827C2.43481 49.4753 2.55319 49.8627 2.68187 50.2502C2.76422 50.4949 2.83628 51.0098 3.00099 51.1933C2.42451 50.556 2.56349 49.4396 1.98186 48.7922C2.10024 48.9247 2.16201 49.3682 2.21863 49.5365C2.33186 49.8627 2.43995 50.189 2.57378 50.5102C2.73334 50.8874 3.09879 51.3666 3.13996 51.7745C3.13482 51.7031 2.9032 51.4533 2.87746 51.3819C3.05246 51.8662 3.30467 52.3964 3.52085 52.8705C3.72159 53.3038 3.95836 53.7219 4.20542 54.1297C4.30836 54.2979 4.87455 54.9658 4.82823 55.1697C4.83852 55.1289 4.31351 54.5324 4.32895 54.5324C4.48337 54.5834 4.83852 55.3379 4.94661 55.4858C5.16279 55.7916 5.38926 56.2301 5.68265 56.4748C5.50765 56.3269 5.3275 55.8732 5.20911 55.6642C5.00323 55.292 4.82308 54.9046 4.65322 54.5171C4.28778 53.6913 3.86056 52.8909 3.50541 52.0599C2.87231 50.5815 2.42966 49.0318 2.04877 47.4769C1.0142 43.2609 0.68478 38.9328 1.17891 34.6097C2.1723 25.9126 6.42384 17.6897 13.1511 11.9851C15.0299 10.3843 17.0887 8.97729 19.2865 7.84045C20.2799 7.32046 21.3094 6.88203 22.3439 6.4589C23.2344 6.09695 24.094 5.58206 25.0153 5.31697C24.9793 5.35265 24.516 5.64833 24.5006 5.64324C24.5984 5.68402 25.6896 5.25579 25.6947 5.28638C25.6947 5.30167 25.633 5.33736 25.6278 5.34246C26.3124 4.91933 27.3058 4.7511 28.0881 4.70012C28.9786 4.63894 29.8639 4.38405 30.7646 4.34326C31.1352 4.32287 31.5058 4.32797 31.8764 4.30248C32.036 4.29228 32.9625 4.30248 33.0088 4.2413C32.8544 4.44522 34.1309 4.26169 34.2287 4.2566C34.8154 4.20052 35.3816 4.21581 35.9633 4.26169C36.4111 4.29738 36.8897 4.2464 37.3324 4.32797C37.3478 4.32797 36.9361 4.34326 36.9361 4.36365C36.9361 4.38405 39.6949 4.81227 39.9729 4.86835C41.1619 5.10795 42.3148 5.37814 43.4575 5.80127C42.3045 5.39344 41.0332 5.51579 39.8442 5.29658C38.5265 5.05187 37.1677 4.93972 35.8346 4.84796C34.6096 4.76639 33.364 4.80208 32.1389 4.91423C31.1713 5.0009 30.1933 5.2252 29.2257 5.25579C29.411 5.2456 30.1985 5.02129 30.3838 4.86325C30.3014 4.93462 30.0338 4.87345 29.936 4.93462C30.1316 4.80717 30.4043 4.82247 30.6102 4.71031C30.1264 4.9805 29.3749 5.01619 28.8396 5.19462C28.5154 5.30167 28.1911 5.45461 27.8514 5.51579C28.0212 5.45971 28.6492 5.11305 28.8139 5.14874C28.5617 5.09776 28.0109 5.34756 27.7793 5.42912C27.2852 5.60245 26.8219 5.75539 26.3072 5.87774C26.3999 5.85735 27.0793 5.57696 27.1205 5.46991C27.0793 5.57696 26.1991 5.81147 26.0808 5.86245C26.019 5.88794 25.3653 6.08166 25.3499 6.14283C25.3704 6.06127 26.1168 5.66363 26.2043 5.67382C25.9933 5.65343 25.5866 5.92872 25.4013 6.01029C25.2829 6.06127 24.4903 6.50988 24.3719 6.43851C24.3976 6.44871 25.0771 6.09695 25.1646 6.00009C25.0307 6.15303 24.3359 6.2193 24.1043 6.29577C23.9241 6.35185 22.0608 6.87694 22.1072 6.98909C22.1072 6.97889 22.2307 6.87184 22.1998 6.86674C21.8395 6.83105 21.3042 7.28477 20.9799 7.41732C20.841 7.47339 20.7123 7.48359 20.5785 7.52437C19.9608 7.71809 19.3946 8.15142 18.8696 8.50318C17.7012 9.28316 16.4762 9.88982 15.4004 10.7769C15.524 10.6443 15.9821 10.3129 15.9975 10.1192C15.9924 10.2008 14.4894 11.3886 14.4637 11.3733C14.4585 11.3733 14.9784 10.7565 15.0247 10.731C14.3504 11.0827 13.7225 11.9086 13.1872 12.4541C12.7445 12.9078 12.235 13.2748 11.7872 13.7235C10.7165 14.7991 9.75918 15.9309 8.80696 17.1085C7.82901 18.3218 6.90767 19.6371 6.14074 20.9931C5.61059 21.9311 5.12676 22.8947 4.6944 23.8786C4.47822 24.368 4.27233 24.8523 4.08704 25.3519C4.04586 25.4589 3.74218 26.086 3.76277 26.1165C3.75247 26.0962 3.76277 25.8667 3.76277 25.8667C3.64953 25.882 3.45394 26.8965 3.41276 27.0495C3.39732 27.1106 3.22747 27.7224 3.17599 27.4675C3.20173 27.6051 3.02673 27.9263 2.98555 28.064C2.90834 28.3341 2.85687 28.6094 2.80025 28.8796C2.76937 29.0275 2.64584 30.1286 2.49143 30.1643C2.46054 30.1694 2.46054 30.0318 2.46054 30.0267C2.47598 30.4039 2.31642 30.8576 2.25466 31.2298C2.22892 31.3929 1.95612 32.4584 2.05392 32.5552C2.03848 32.5399 1.99215 32.0964 2.00759 32.0709C1.72965 32.5297 1.87377 33.4117 1.78627 33.9317C1.73994 34.2223 1.63185 34.4058 1.59582 34.7117C1.54435 35.2164 1.52376 35.7211 1.47744 36.2258C1.38479 37.1434 1.46715 38.061 1.41053 38.9837C1.38994 39.3151 1.38994 39.621 1.41567 39.9625C1.43626 40.1512 1.66788 41.1911 1.52376 41.3084C1.48259 41.2778 1.45685 41.237 1.44656 41.1809C1.62671 41.65 1.57523 42.2872 1.637 42.7817C1.71421 43.3782 1.76568 43.9644 1.89436 44.5507C1.97156 44.8973 2.04362 45.2491 2.14657 45.5856C2.2598 45.9577 2.6201 46.4777 2.62525 46.8397C2.62525 46.6918 2.52746 46.4675 2.49657 46.3299C2.37819 45.7487 2.30098 45.1522 2.21348 44.566C2.04362 43.4291 1.93553 42.2872 1.79656 41.1504C2.00759 42.4095 2.16716 43.7095 2.42451 44.9585C2.77452 46.6306 2.93408 48.4047 3.46938 50.031C3.92233 51.4176 4.26719 52.8705 4.70984 54.2419C4.88484 54.7873 5.39441 55.3277 5.72383 55.7916C5.96574 56.1332 6.21795 56.4697 6.48046 56.7959C6.6709 57.0355 6.88708 57.4485 7.14958 57.6065C6.95914 57.4943 6.76355 56.7347 6.65031 56.5155C6.45987 56.1332 6.24369 55.7661 6.04295 55.3889C5.96574 55.2461 5.9503 55.1034 5.91942 54.9964C5.86795 54.8281 5.54368 54.3744 5.56427 54.2521C5.52309 54.4866 6.17163 55.3022 6.30545 55.5265C6.52678 55.8987 6.7687 56.2453 7.02605 56.5971C7.43268 57.1528 7.79812 57.7594 8.23048 58.2896C8.14298 58.2081 7.71062 57.8206 7.70033 57.7186C7.72092 58.0296 8.44151 58.6108 8.62166 58.8453C9.12094 59.4978 9.60991 60.1606 10.1349 60.7978C10.8349 61.6441 11.5349 62.4342 12.3997 63.1123C12.1011 62.7299 11.6276 62.4801 11.3599 62.0774C11.4217 62.1691 11.8232 62.3323 11.8489 62.4495C11.7974 62.2558 11.3599 61.9092 11.257 61.7919C10.7783 61.2413 10.3254 60.6755 9.87242 60.1045C10.1298 60.3492 10.3717 60.599 10.6188 60.8488C10.454 60.4257 9.88271 60.0433 9.58418 59.6966C9.368 59.4418 9.1827 59.1665 8.98711 58.8963C9.07461 58.9727 9.35256 59.141 9.38859 59.2429C9.28565 58.9676 8.93564 58.6975 8.75549 58.468C8.77093 58.4782 8.78637 58.4935 8.79667 58.5037C8.65255 58.2539 8.5599 57.999 8.42607 57.7492C8.32313 57.5504 7.95254 57.1885 7.98857 56.9794C8.97682 58.203 9.96507 59.4214 11.0202 60.5939C11.8232 61.4809 12.7703 62.2915 13.321 63.3621C13.2078 63.1429 12.6107 62.8319 12.4203 62.6738C12.0497 62.3578 11.7048 62.0162 11.3599 61.6746C11.4989 61.8786 11.643 62.057 11.818 62.2354C12.0136 62.4291 12.3791 62.6229 12.5129 62.8676C12.4614 62.7707 12.0702 62.6738 12.0497 62.577C12.0908 62.7503 12.5644 63.0205 12.6879 63.1174C13.2953 63.6068 13.9181 64.0758 14.5563 64.5244C15.9152 65.4726 17.3358 66.3291 18.8078 67.0887C20.2439 67.8279 21.7263 68.4702 23.2498 69.0157C24.0013 69.2859 24.7682 69.5204 25.53 69.7549C25.6432 69.7906 26.5955 70.1474 26.683 70.0302C26.5955 70.1525 24.4903 68.98 24.269 68.8627C23.2807 68.3529 22.3182 67.8381 21.3814 67.2365C21.891 67.5832 22.7814 67.8381 23.3528 68.0522C23.8572 68.2408 24.5057 68.6333 25.0565 68.6639C24.6447 68.6384 24.1866 68.3988 23.8006 68.2714C23.5792 68.2 23.2395 68.149 23.0439 68.0318C23.2498 68.1541 23.5226 68.2204 23.744 68.3071C23.919 68.3733 24.3925 68.4447 24.5057 68.5976C24.444 68.5161 24.0888 68.562 24.0476 68.4651C24.0837 68.5467 23.8469 68.3733 23.7851 68.4294C23.7285 68.4855 25.8337 69.2502 25.7462 69.2247C26.1734 69.3623 26.5646 69.5714 26.9918 69.7141C27.4499 69.867 27.9337 69.9333 28.3867 70.076C28.0881 69.9792 27.7845 69.9027 27.4962 69.7957C27.7278 69.8772 28.0161 69.8925 28.2631 69.9588C28.7264 70.0913 29.1742 70.2851 29.6323 70.4278C29.869 70.4992 30.7441 70.9172 30.9499 70.8305C30.6926 70.9376 30.147 70.7082 29.8742 70.6623C29.5602 70.6113 28.9734 70.3921 28.6698 70.4533C28.7676 70.4329 29.5911 70.6827 29.5962 70.6572C29.5911 70.6725 29.2514 70.6062 29.1896 70.6113C29.7198 70.5756 30.4301 70.8356 30.9705 70.9121C31.2588 70.9529 31.8198 70.9376 32.0669 71.116C31.8764 70.9784 31.2022 71.0294 30.9654 70.9988C30.4661 70.9376 29.9668 70.8662 29.4676 70.7999C31.0889 71.0905 32.7154 71.269 34.3265 71.6003C34.0022 71.5341 33.6059 71.5239 33.2713 71.4729C32.9162 71.4219 32.4529 71.5035 32.1235 71.3964C32.5507 71.5341 33.05 71.5748 33.4978 71.6156C33.7037 71.636 34.1515 71.7584 34.3419 71.6972C34.1978 71.7431 33.8323 71.7176 33.7088 71.6921C34.0434 71.7635 34.4191 71.7991 34.7537 71.8297C35.1294 71.8654 35.5103 71.8756 35.886 71.8807C36.1537 71.8858 36.6272 71.9725 36.8794 71.8858C36.653 71.9623 36.0662 72.0184 35.8552 71.9572C36.5655 72.1611 37.4765 71.8246 38.2023 71.8552C37.4045 71.8552 36.6272 71.7074 35.8346 71.6513C35.0162 71.5952 34.1875 71.4321 33.4 71.2231C32.108 70.8764 30.8161 70.6113 29.5499 70.1678C28.0933 69.658 26.6572 69.1023 25.2675 68.4345C21.016 66.3749 17.063 63.5558 13.8975 60.0637C12.2555 58.2488 10.8143 56.2402 9.38859 54.2571C9.41947 54.3285 9.95992 54.9913 10.0165 54.9658C10.0217 54.9658 9.58933 54.354 9.57389 54.2673C9.62536 54.2928 9.66653 54.3336 9.69227 54.3897C9.368 54.0124 9.07976 53.5587 8.8327 53.1254C8.86873 53.1713 8.97167 53.3395 9.03858 53.3854C8.77608 53.2172 8.53416 52.3658 8.41063 52.1007C8.13269 51.5043 7.86504 50.8517 7.63341 50.2349C7.63341 50.2349 7.82386 50.449 7.82386 50.4337C7.84959 50.3113 7.63856 50.0259 7.58709 49.929C7.35032 49.4753 7.20106 49.0267 7.04149 48.5424C7.6643 49.8933 8.34372 51.2137 8.99226 52.5544C8.85329 52.269 8.65255 51.9784 8.50843 51.6878C8.34887 51.3717 8.16357 51.0353 7.9371 50.7651C8.20989 51.0862 8.34372 51.6623 8.56505 52.0497C8.66284 52.218 8.86873 52.7125 9.02314 52.8093C8.93049 52.7533 8.7452 52.5086 8.70917 52.427C8.84814 52.7431 9.07976 53.0999 9.25991 53.4058C9.43491 53.7015 9.62536 53.9768 9.83124 54.2521C10.0011 54.4815 10.3871 54.823 10.4643 55.1085C10.4283 54.9709 10.0268 54.5834 9.91874 54.5019C10.1504 54.6752 10.3768 55.1034 10.5724 55.3328C10.7732 55.5775 11.0717 55.8222 11.2519 56.0771C9.95477 54.2266 8.96138 52.2231 8.14298 50.1278C8.40549 50.5968 8.79152 51.0251 8.94079 51.545C8.93564 51.4584 8.7349 51.2443 8.68343 51.1678C8.98196 51.6572 9.32168 52.1211 9.65624 52.5901C9.51727 52.3352 9.37829 52.0854 9.24962 51.8305C9.53271 52.2282 9.8158 52.6309 10.0783 53.0387C10.1349 53.1254 10.7938 54.0379 10.7371 54.1909C10.7423 54.1756 10.2327 53.6199 10.2018 53.5995C10.4283 53.7474 10.6754 54.3591 10.8349 54.6089C11.1077 55.0269 11.3599 55.4603 11.6585 55.8579C11.2107 55.4042 10.8092 54.8842 10.4129 54.3897C10.3151 54.2673 9.9908 53.6964 9.83124 53.6709C9.94963 53.7066 10.2173 54.2419 10.2893 54.3336C10.4438 54.5273 10.6085 54.716 10.768 54.9097C10.9276 55.1034 11.0923 55.292 11.257 55.4756C11.3394 55.5673 11.7305 56.0924 11.7974 56.1077C11.7408 56.0975 11.4732 55.8528 11.4732 55.8528C11.4114 55.9752 12.1217 56.8265 12.1938 56.9336C12.4563 57.321 12.7445 57.6881 13.0276 58.0602C12.7806 57.79 12.5232 57.5198 12.2813 57.2445C12.1938 57.1477 11.9364 56.9438 11.921 56.8061C11.9467 56.9794 12.3688 57.1171 12.446 57.2904C12.235 56.8163 11.6019 56.4798 11.3033 56.0618C11.5401 56.3932 11.6945 57.0559 12.0805 57.2292C12.0239 57.2038 11.8849 56.9998 11.818 57.01C11.8489 57.0049 12.4408 57.8053 12.4357 57.8104C12.4151 57.8257 12.3636 57.7594 12.3379 57.7747C12.307 57.79 13.7173 59.2072 13.81 59.3143C13.985 59.5182 14.1034 59.7578 14.2938 59.9566C14.51 60.186 14.9681 60.7111 15.2409 60.8029C15.2203 60.7927 15.1946 60.7825 15.174 60.7774C15.2151 60.808 15.2512 60.8386 15.2924 60.8692C15.071 60.706 14.4791 60.4155 14.3453 60.1708C14.3968 60.2625 15.5549 61.1292 15.5188 61.2005C15.5343 61.175 14.6232 60.6143 14.6335 60.5531C14.5923 60.7417 15.8534 61.5574 16.0438 61.7103C16.3527 61.9499 16.6203 62.1793 16.8828 62.4444C17.5828 63.153 18.4475 63.6475 19.2402 64.244C19.8733 64.7232 20.5321 65.1667 21.1858 65.6103C21.8498 66.0589 22.5807 66.4208 23.291 66.7879C23.3837 66.8338 24.5778 67.4965 24.6396 67.4455C24.5726 67.5016 24.1763 67.3232 24.0991 67.313C24.4079 67.369 24.9587 67.5883 25.2418 67.7718C25.2521 67.7769 24.8043 67.7106 24.8763 67.7259C25.1337 67.782 25.4116 67.9451 25.6587 68.0369C25.8131 68.0929 26.4771 68.4447 26.6161 68.3988C26.5491 68.4192 26.3124 68.3478 26.2815 68.3427C26.8219 68.4702 27.5117 68.6537 28.0109 68.9035C27.9389 68.8678 27.2903 68.8423 27.2646 68.771C27.3109 68.8984 28.5051 69.2145 28.5565 69.189C28.4896 69.2196 28.3712 69.1839 28.2992 69.1941C28.5308 69.1686 29.0404 69.449 29.2771 69.5357C29.6374 69.6682 30.0183 69.7549 30.3941 69.867C30.5639 69.918 31.8816 70.3462 31.8867 70.2749C31.8816 70.3055 31.4852 70.2698 31.5264 70.28C32.3242 70.438 33.05 70.6419 33.8581 70.7388C34.0382 70.7592 34.2132 70.7745 34.3934 70.7847C34.7176 70.8 35.2324 70.698 35.5463 70.7949C35.1243 70.6623 34.6456 70.5858 34.2081 70.4737C34.0537 70.4329 32.6073 70.0404 32.5198 70.1372C32.5404 70.1372 32.561 70.127 32.5764 70.1168C32.3294 69.9282 31.7066 69.9078 31.408 69.816C30.9705 69.6835 30.5176 69.5561 30.1007 69.3725C29.1742 68.9647 28.1859 68.7251 27.2594 68.3122C27.63 68.4753 28.119 68.5212 28.5153 68.6486C29.1382 68.8474 29.7507 69.0667 30.3683 69.2655C31.022 69.4796 31.7066 69.6784 32.3808 69.8262C33.2147 70.0047 34.0743 70.2545 34.9081 70.3564C35.9015 70.4737 36.9309 70.4431 37.9295 70.5196C37.5537 70.5502 37.2089 70.5349 36.8383 70.5094C36.4471 70.4839 36.0199 70.5858 35.6287 70.5298C36.1691 70.6062 36.6942 70.6317 37.2397 70.6164C37.528 70.6062 37.8162 70.596 38.1045 70.5756C38.192 70.5705 38.753 70.6113 38.7684 70.6011C38.6501 70.7031 37.6412 70.7949 37.4508 70.7541C37.6567 70.805 37.914 70.7133 38.1148 70.7847C38.017 70.749 37.4971 70.8152 37.3684 70.8713C37.6 70.7643 38.1353 70.856 38.3979 70.8356C38.8302 70.8101 39.2626 70.7898 39.6949 70.7439C40.6677 70.6317 41.6457 70.6419 42.6339 70.6215C42.2273 70.7796 41.6663 70.7031 41.2391 70.7286C40.8788 70.749 40.5288 70.8152 40.1736 70.8917C40.9869 71.0141 42.0008 70.7999 42.845 70.6572C42.7781 70.6725 42.5773 70.7745 42.5259 70.7592C42.7266 70.8152 43.0766 70.6827 43.2619 70.6419C43.6325 70.5705 43.9928 70.5451 44.3685 70.5145C44.3274 70.5298 44.0031 70.596 43.9928 70.647C44.0185 70.4839 45.6038 70.4125 45.7994 70.3921C46.1391 70.3564 46.4943 70.336 46.834 70.2749C48.3267 70.0149 49.9069 69.7447 51.3532 69.2961C51.9863 69.0972 52.6039 68.7149 53.1804 68.3988C53.9113 67.9961 54.6371 67.629 55.3885 67.2671C56.3202 66.8185 57.2158 66.3138 58.1165 65.8142C58.518 65.595 58.9195 65.3758 59.3055 65.1361C59.5526 64.9832 59.8614 64.6111 60.1033 64.5295C59.7019 64.6671 59.3313 64.973 58.9658 65.182C58.5437 65.4216 58.1114 65.6357 57.679 65.855C56.804 66.3036 55.9187 66.7267 55.0231 67.1243C54.0709 67.5475 53.1032 67.9451 52.1201 68.2867C51.6054 68.4651 51.0855 68.6282 50.5605 68.7812C50.3598 68.8423 49.2429 69.0259 49.2017 69.1329C49.2686 68.9545 50.2054 68.7455 50.437 68.6486C50.998 68.4192 51.5385 68.1898 52.1098 67.9961C52.0584 68.0267 51.662 68.3071 51.6157 68.2867C51.7392 68.3224 52.1613 68.0573 52.2539 68.0114C52.5319 67.8788 52.8047 67.7871 53.0826 67.6698C53.0775 67.6902 53.0929 67.6902 53.129 67.6647C53.1032 67.68 52.7429 67.9094 52.7378 67.9094C52.8665 67.9502 53.2576 67.7106 53.4172 67.6494C53.7106 67.5373 54.004 67.42 54.2974 67.2977C55.018 67.002 55.6253 66.5483 56.3047 66.1761C56.84 65.8804 57.4062 65.6357 57.9364 65.3197C58.4768 64.9934 58.9452 64.5703 59.4599 64.2389C59.3055 64.3358 58.1783 64.9373 58.1732 65.0597C58.1834 64.8914 58.8474 64.555 58.9915 64.4632C59.5526 64.1115 60.1033 63.7546 60.6489 63.3774C61.1585 63.0256 61.6526 62.6586 62.1467 62.2864C62.5276 61.9958 62.9085 61.6084 63.3409 61.4045C62.8056 61.9295 62.2291 62.628 61.6217 63.0664C61.8739 62.888 62.1828 62.3731 62.471 62.3068C62.4659 62.3068 62.2909 62.5005 62.3063 62.5209C62.3269 62.5464 63.8041 61.017 63.9328 60.8896C64.1747 60.6398 64.813 60.237 64.921 59.9617C64.8078 60.2574 64.4012 60.5786 64.1953 60.8131C63.9019 61.1496 63.624 61.4911 63.3357 61.8276C64.1387 61.0068 64.9828 60.2268 65.6828 59.3143C65.935 58.988 66.1924 58.6924 66.4806 58.3916C66.7637 58.0959 67.0468 57.8002 67.3145 57.4943C67.4843 57.3006 67.9012 56.9845 67.9784 56.75C67.7108 57.5657 66.6711 58.0041 66.3931 58.83C66.4497 58.6618 66.81 58.3814 66.9284 58.2539C67.1549 57.9939 67.3865 57.7339 67.6027 57.4638C67.8549 57.1426 68.0917 56.5818 68.4262 56.3473C68.3645 56.3881 68.2667 56.7093 68.2152 56.7704C68.5549 56.3779 68.8895 55.8987 69.1932 55.4756C69.4711 55.083 69.7182 54.6803 69.9549 54.2571C70.0527 54.0838 70.3513 53.2682 70.552 53.2019C70.5108 53.2172 70.2483 53.9615 70.2483 53.9513C70.2123 53.7932 70.6961 53.1101 70.7733 52.947C70.9329 52.6054 71.2006 52.1976 71.2726 51.8254C71.1954 52.2486 70.6498 52.8807 70.4027 53.2376C70.0425 53.7525 69.6616 54.2521 69.3013 54.772C68.591 55.8018 67.8034 56.75 66.9799 57.6881C64.9262 60.028 62.3629 62.1182 59.7224 63.7699C60.7364 62.9134 61.6835 61.9754 62.6666 61.0884C62.9445 60.8386 63.2225 60.5888 63.485 60.3237C63.7681 60.0331 64.046 59.4468 64.3755 59.248C63.9534 59.4978 63.5622 59.9719 63.171 60.2829C64.0718 59.2276 65.1475 58.4375 66.1821 57.5147C66.9953 56.7908 67.7417 55.914 68.488 55.1187C69.049 54.5171 69.7336 53.9666 70.1042 53.2478C70.413 52.6462 70.6961 52.0294 70.9638 51.4074C71.1285 51.02 71.5145 50.4031 71.5197 49.9851C71.5197 50.2043 70.9535 50.7549 70.8145 50.9588C70.5726 51.3156 70.3616 51.6827 70.1351 52.0446C70.0476 52.1823 69.9292 52.269 69.852 52.3505C69.7285 52.478 69.4969 52.9827 69.3785 53.0286C69.6049 52.947 69.991 51.9784 70.1197 51.7541C70.3358 51.3768 70.5211 50.9996 70.6961 50.6019C70.9792 49.9749 71.3292 49.358 71.5763 48.7259C71.5454 48.8431 71.427 49.409 71.3395 49.4651C71.602 49.2918 71.7461 48.3843 71.8645 48.1141C72.1888 47.3596 72.5182 46.6102 72.8116 45.8405C73.1976 44.8158 73.5374 43.8217 73.7072 42.7409C73.5425 43.0927 73.5013 43.4699 73.4035 43.8472Z" fill="white"/>
</g>
<defs>
<clipPath id="clip0_0_6">
<rect width="74" height="72" fill="white"/>
</clipPath>
</defs>
</svg>
